/* XPM */
static char *result[] = {
/* columns rows colors chars-per-pixel */
"64 64 211 2 ",
"   c #2C262D",
".  c #2F292F",
"X  c #2F2A31",
"o  c #332D33",
"O  c #363135",
"+  c #393436",
"@  c #34313D",
"#  c #3A3538",
"$  c #3E3A3A",
"%  c #413E3D",
"&  c #45423E",
"*  c #34364A",
"=  c #3F4357",
"-  c #394267",
";  c #36497D",
":  c #3C4C7E",
">  c #3C517E",
",  c #474442",
"<  c #494643",
"1  c #4D4A46",
"2  c #4E4C48",
"3  c #504E47",
"4  c #514F49",
"5  c #515047",
"6  c #55534B",
"7  c #58574D",
"8  c #5A5A4D",
"9  c #515254",
"0  c #5D5C52",
"q  c #605E56",
"w  c #615F58",
"e  c #5F6052",
"r  c #61654E",
"t  c #636453",
"y  c #666953",
"u  c #696D55",
"i  c #646359",
"p  c #65685A",
"a  c #6B6D5B",
"s  c #6D7257",
"d  c #6F735A",
"f  c #71765B",
"g  c #75795A",
"h  c #747A5D",
"j  c #545D6B",
"k  c #48587B",
"l  c #556271",
"z  c #636A65",
"x  c #6C6E62",
"c  c #737463",
"v  c #767A62",
"b  c #797E63",
"n  c #767768",
"m  c #7B7D6A",
"M  c #606C7A",
"N  c #6E7571",
"B  c #7C8265",
"V  c #7E8269",
"C  c #808667",
"Z  c #81866B",
"A  c #858A6D",
"S  c #898E6E",
"D  c #8B916F",
"F  c #838571",
"G  c #868A72",
"H  c #898E74",
"J  c #858C7C",
"K  c #8A8D7B",
"L  c #8C9175",
"P  c #87907F",
"I  c #8C927A",
"U  c #909773",
"Y  c #949A75",
"T  c #91967A",
"R  c #959A7B",
"E  c #999D7D",
"W  c #9BA17E",
"Q  c #9ECD55",
"!  c #A0CD5A",
"~  c #A8C972",
"^  c #354781",
"/  c #374982",
"(  c #3C4D82",
")  c #3C4E89",
"_  c #3E5186",
"`  c #3E528A",
"'  c #3E5191",
"]  c #435482",
"[  c #435982",
"{  c #4C5B84",
"}  c #41558B",
"|  c #455A8D",
" . c #4D5E8A",
".. c #515F84",
"X. c #425692",
"o. c #465B92",
"O. c #485E92",
"+. c #425699",
"@. c #455C9A",
"#. c #495F98",
"$. c #5E6C87",
"%. c #476096",
"&. c #4B6295",
"*. c #4D659A",
"=. c #4F689C",
"-. c #556993",
";. c #516B9E",
":. c #5B739C",
">. c #616E84",
",. c #69768B",
"<. c #697A96",
"1. c #4B64A1",
"2. c #4F6CA2",
"3. c #536EA1",
"4. c #526CA9",
"5. c #5672A4",
"6. c #5874A6",
"7. c #5D78A1",
"8. c #5573AA",
"9. c #5976A9",
"0. c #5C7AAC",
"q. c #5A77B2",
"w. c #5E7EB2",
"e. c #627FAF",
"r. c #607FB0",
"t. c #7B8587",
"y. c #788698",
"u. c #5F81B8",
"i. c #7688A2",
"p. c #7A8DA4",
"a. c #7E91A9",
"s. c #6383B4",
"d. c #6A86B6",
"f. c #6B89B7",
"g. c #6486B9",
"h. c #6689BB",
"j. c #6A8BBB",
"k. c #708FBD",
"l. c #6F91BF",
"z. c #7090BF",
"x. c #698DC0",
"c. c #6D91C2",
"v. c #7295C3",
"b. c #7598C6",
"n. c #7899C7",
"m. c #759AC9",
"M. c #7A9DCB",
"N. c #7CA1CE",
"B. c #7EA5D1",
"V. c #8A9181",
"C. c #8B9386",
"Z. c #969A82",
"A. c #999E82",
"S. c #969A89",
"D. c #95998B",
"F. c #818C97",
"G. c #8B9597",
"H. c #949C94",
"J. c #9CA285",
"K. c #9EA389",
"L. c #9BA297",
"P. c #A1A685",
"I. c #A4A986",
"U. c #A1A68A",
"Y. c #A5AA8C",
"T. c #A9AE8B",
"R. c #ACB28F",
"E. c #A7AC90",
"W. c #A3A895",
"Q. c #A9AE91",
"!. c #ADB294",
"~. c #AEBA96",
"^. c #AEB199",
"/. c #AFB998",
"(. c #B1B695",
"). c #B3BA94",
"_. c #B1B599",
"`. c #B4BB9A",
"'. c #B9BF9E",
"]. c #8296AD",
"[. c #929CA2",
"{. c #869CB4",
"}. c #97A4AD",
"|. c #8AA2B9",
" X c #A2ACAA",
".X c #ABB2A7",
"XX c #B6BBA2",
"oX c #B8BCA7",
"OX c #B3B8AA",
"+X c #B3BEBC",
"@X c #AFC487",
"#X c #B6C29D",
"$X c #BBC29E",
"%X c #BDC3A3",
"&X c #BBC5A6",
"*X c #BFC4B3",
"=X c #BCC3BB",
"-X c #C7CFA4",
";X c #C8CFA4",
":X c #C2C7A8",
">X c #CCD2A5",
",X c #C2C6B2",
"<X c #C3C8B6",
"1X c #84A3C9",
"2X c #9AB3CD",
"3X c #81A7D3",
"4X c #83AAD5",
"5X c #ABBBC7",
"6X c #B0BFC8",
"7X c #BBC6C8",
"8X c #C0C9C6",
/* pixels */
">X<.@.1.b.l.g.6.%.+.+.) / ] XX>X-X-X-X-X-X-X-X-X$X>X-X-X-X-X-X-X-X-X-X-X-X-X-X-X-X-X-X;X;X;X-X-X-X>XG.@.%.c.b.f.0.#.#.@.' ( ^ W.",
"T.y.1.0.s.b.N.c.q.1.} ) ( { S.I I K I I I I I K L I I I I I I I I K I K I I I I I K I K I I I I I R G.@.9.0.v.B.m.w.4.X.) ) / L.",
"Y.}.+.d.b.g.s.6.&.O.X.} / ,.t.] k ] ] k ] ] k ] ] k k ] ] k k ] [ k ] k ] > ] ] k ] ] k k ] k ] k .. X2.8.m.h.s.9.#.+.o.X.( { L.",
"U.OXf.8.j.N.B.j.0.4.o.( ] L.M ^ ( ( ( ( ; ( / ( / / ( ( / ( / ( ( / / ( ( ( ( : ( / / ( / ( ( / ^ ( .X{.8.g.M.B.b.r.8.#.) ; F.T ",
"$X_.+Xb.g.w.g.0.*.` _ ] [.Z.k : ( ( : : ( ( ( ] ( ( : ( ( : ( : ( ( ( : : ( : _ ( ( ( ( ( ( k ( ( ( G.*X1Xg.r.d.e.1.O.} > y.U.H ",
":X(._.=X2XN.v.u.9.:.i..XA.N 7.: ( ( ( _ ( ( : ( : ( _ : : _ ( : ( : ( _ ( ( ( : ( / ( : ( ( ( ( ( ( ,.Q.=X5X1Xm.h.9.7.<.}.^.h _.",
"&X:XI.Y.oX8X7X6X5X=XoXI g p.g.) : ( ( ( : ( ( : ( : _ ( ( ( ( : > ( ( : : ( ( : ( k ( ( ( ; : ( ; } X.C.Y.'.<X7X6X6X+XoXP.d T <X",
"&X:X!.R E A.E R T S B u J.{.x.&.: : ( : ( ( ( ( ( ( : ( ( : ( _ ( ( ( : _ ( : _ ( ( : ( ( ( ( ( ( } X.V.T Z.Z.A.E T H V f y T.:X",
"#X:X`.Z.G G G A V v u r !.|.x.9.( ] ( ( ) ( ( ( _ : ( _ ( ( > _ _ ( _ ( ( ( ( ( ( ( ] ( ) ( ( ( ) o.` C.J.G G G Z Z b s t u I.,X",
"$X:X`.W.Z.F v d u s d s !.{.g.s.| ( ) ] ) ] ) ] ] _ _ _ _ _ _ _ _ ( ] _ ( ] ) ] } ( } ( ] ) ] ) } | ' V.I.J.H m f a u s f s I.,X",
"#X%X`.U.I.J.R H A Z B d ^.{.u.g.=.) ) } ( ` } ( ` _ _ ` _ _ _ _ ] _ ` _ ( X.( } ] ) } ( } ) ) } } } ' V.I.I.J.R H A Z V h s I.,X",
"$X%X`.K.i 7 Z L V 7 < y ^.{.w.g.0.] ) | ] ` } ) } } } } _ } } ` } ) } } } } } } } } } ) } } ] } } } ` V.Y.n 2 v I G t , t s I.,X",
"#X%X`.J.< . 0 T d o O r _.{.q.s.r.O.) o.} } | ) | } } | _ | ` [ o._ | } } } } } } } X.] X.X.} } } } ` V.Y.i   < I V $ X 7 f P.:X",
"&X$X'.S.5 O 7 T a # & r _.{.q.s.s.3.) o.) } X.} X.` } X._ ` ` ` X._ | } } X.) } } } X.] X.} } } } } ` V.Y.p + < L V % % 8 s I.,X",
"oX$X_.Y.L V V L b d B s ~.{.q.u.r.e.d.1Xd.k.n.e.M.f.j.n.s.N.f.f.M.s.M.k.f.n.d.n.j.f.M.e.v.k.e.o._ ` ` V.I.T V B H V a b f s I.:X",
"A.$X_.Y.K.J.R L G F B s !.a.8.0.q.e.j.4Xf.v.B.d.4Xk.v.3Xf.B.l.l.4Xs.3Xz.k.3Xd.3Xv.k.4Xd.1Xv.f.o._ ` ) V.I.I.K.J.L G A B h s I.!.",
").'.`.U.x w F T Z 0 5 u ^.].8.0.0.0.5.c.5.0.j.2.c.9.s.h.;.l.u.5.c.=.c.9.9.j.3.f.s.6.c.=.j.w.3.| ` _ ) V.I.m q m T A i 3 t d U J.",
"`.'.`.J.<   0 T c o O r !.a.8.9.9.9.3.c.3.0.j.=.j.6.9.h.=.h.9.6.c.=.j.9.5.j.;.g.0.5.c.*.h.0.;.| ) ] ( V.Y.w   < H Z % o 8 d S T ",
"$X`.`.J.3 o 7 T a + % r _.p.8.9.9.9.;.j.;.9.h.*.j.6.9.g.=.h.6.5.j.*.h.6.5.h.=.s.9.5.j.*.h.0.3.O.( _ ( V.I.i o < H Z % # 8 d S T ",
"%X'.(.Y.Z b m M x s h s ^.p.8.8.9.0.;.j.3.6.g.*.h.;.9.s.*.g.5.5.h.*.g.6.6.h.&.u.8.5.h.&.s.6.3.*.( ` / V.T.H C b N M u h f f G S.",
"'.'._.Y.T.P.t./ l G V f ^.a.4.5.5.0.=.g.=.6.s.*.s.;.9.s.%.s.5.5.g.&.g.5.;.s.=.s.6.;.h.&.s.5.2.5.( ( / V.I.Y.I.V.] ] Z C g d A S.",
"`.`._.U.c z -.#.( j 6 u ^.p.2.3.6.0.=.g.=.6.s.&.s.;.5.s.&.s.5.:.g.&.s.;.=.s.=.s.6.=.g.&.s.5.3.6.: ) ( P Y.F i >.1.) j 6 t f A S.",
"$X`.`.K.& - *.*.) - O r ^.p.2.3.9.0.&.g.=.:.u.O.s.=.;.u.&.s.;.;.s.&.s.;.=.s.*.0.6.=.s.%.0.5.;.0._ ( / P I.q * | ;.} ; O 8 d A S.",
"#X`.(.J.9 } e.e.` ) = r !.p.*.3.9.5.%.s.*.;.0.&.s.;.;.0.%.9.;.;.s.| s.;.*.s.&.0.;.*.s.O.9.:.;.0.} : ; V.I.p : 0.e.X.) = 8 d A S.",
"`.`._.P.>.#.9.3.} / k p _.i.*.=.5.5.&.u.*.;.0.O.s.=.;.0.O.0.=.=.u.[ 6.*.*.5.&.:.;.*.0.O.9.;.*.e.} ( ( V.I.t.O.3.e.} / ( z s A Z.",
"#X).).H.O.3.v.q.#.X.( j _.i.*.*.:.5.&.9.&.=.5.O.7.&.=.6.%.6.=.*.9.| s.=.*.s.%.5.;.*.0.| 7.;.&.0.} ; ^ K Y.-.1.j.e.O.+.) k s A Z.",
"'.`.`.,.2.3.d.9.o.) ( : ^.i.%.*.3.3.&.6.&.=.5.O.6.&.=.6.%.5.-.=.9.| 9.*.&.6.&.3.;.&.8.O.5.;.%.9.} : / K F.*.=.s.d.*.} ) / z S S.",
"oX).L.#.%.c.v.0.*.+.) ; F.y.%.%.;.;.| 6.%.=.;.O.6.&.*.;.| 5.&.&.6.| 5.&.&.5.O.2.;.%.5.| 3.*.&.9.} ] ; J :.o.f.v.q.*.+.) / l H T ",
"J.).,.*.8.0.c.g.1.X.) / { <.%.O.=.=.| 5.%.&.;.O.;.&.&.;.O.;.O.O.5.| 3.&.&.;.O.;.*.&.;.o.;.*.&.5.| ] : ,.#.8.9.v.c.8.+./ ) ( J G ",
"R.K.*.#.r.m.j.9.#.#.' ( ( ,.-.X.=.=.| 3.O.&.=.| =.&.&.=.| ;.&.&.;.| ;.&.&.=.| =.*.O.;.{ ;.%.| 3.| ) >.<.o.9.b.j.e.#.o.X.) ^ >.T ",
").F.| 9.0.f.m.j.4.@.) ) / >.<.} &.&.[ 3.[ &.=.| =.O.O.=.| =.&.&.;.[ =.O.O.;.| =.&.| ;.| =.&.O.=.X.{ t.&.8.5.f.N.c.8.1.X.) ( { S.",
").<.*.=.m.v.d.4.O.#.+.) ( { y.) &.&.| =.| %.&.| =.O.O.&.| &.O.| ;.` *.O.| =.[ &.O.| *.[ *.| | =.} -.y.#.#.v.c.e.e.#.X.+.' ( / D.",
"`.<.1.0.r.v.B.c.q.1.` ) ( ..y.` O.O.[ *.| | %.} &.| | &.} &.| | &.` &.[ o.&.} &.| | *.} O.| | &.} -.F.*.8.0.v.B.m.w.4.+.) ) ( H.",
").}.X.d.b.f.s.5.%.o.+.` ^ t.y.` | O.| O.| | &.} &.| | &.} &.| | &.` %.| | %.[ &.| | &.} &.| | &.] -. X*.9.m.g.s.0.%.X.X.} (  .D.",
"R.oXf.6.h.M.3Xc.w.3.o.( > L.M | | | } O.} | O._ | | | | } | | } &._ &.| } O.` | | } O.} | | } O.}  ..X{.2.j.N.N.v.q.8.*.} ; F.T ",
"T.`.6Xn.g.r.s.0.%.| _ [ [.Z.k ` | | } | ] } | _ | } } | ] | } } O.> [ | [ | } | } } | _ | [ } | _ } G.<X1Xs.w.j.s.3.O.} : y.W.h ",
"T.Y._.=X2X3Xn.h.e.<.i..XP.p } _ } } _ | _ } [ _ } ] _ } _ | } ` } _ } _ ` } _ } } ] } _ } } ] | _ } $.Q.<X5X1Xv.d.9.:.e.}.^.g V ",
"Y.T.U.T.oX<X8X8X7X+XOXI s l ` ( _ _ ( _ ( _ ` ( _ _ _ _ ( ] ( ( _ > _ _ ( ` _ _ ] ( ) ( ) ( ( } ( _ ( D.Y.OX<X7X8X7X<XoXP.f v A ",
"Y.T.T.T R A.A.J.R H b u s >.|  . . . . . . . . . . . . .|  . . . . . . . . . . . . . . . . . . .|  .| D.E R Z.J.J.A.L V f y C A ",
"I.T.^.Z.G G Z V b f u t f XXOXOXOXOXOXOXOXOXOXOXOXOXOXOXOXOXOXoXOXOXOXOXOXOXOXOXOXOXOXOXOXOXOXOXoXOXoXXXJ.H G Z Z b f s r u V A ",
"I.I.!.W.R A m h d s d d f L T Y Y Y R Y R E Y E R R Y Y R W W R W E E E R Y R Y R R Y R R Y R Y E R T Y.Q.A.H m v d s s f s V A ",
"I.I.!.Y.K.J.R G S V b d f G G H L I K I L H I H L I L I I G I I L I I L I L L T H I L L H T H T L L H U.Y.U.J.R H A Z b v s V Z ",
"`.I.!.Y.i 6 V I V 7 < u g K.Y.Y.U.i 2 F T.W.I 4 0 J.Y.Y.n < c Y.W.A.0 2 V.Q.W.F 4 i U.Y.W.x < m Y.Y.Y.!.Q.n 4 n I G t , r d B H ",
"#XY.!.J.,   0 T d o O r h J.K.Y.J.#   x Y.Y.n o O K E.K.5   2 W.Y.I O   m Y.Y.x   % Z.Y.U.,   0 Y.U.U.Q.Q.w   , L V $ o 8 d C V.",
"`.I.^.K.5 # 0 T a $ , p h Z.J.J.R % + x U.U.n # & G K.J.7 O 6 K.U.K $ # m U.K.x O , Z.J.J.2 O t U.J.K.Q.Q.p # 1 L m & % e d B K ",
"~.Y.!.Y.L Z V L b d b d f Z.A.A.A.Z S I A.A.H Z G T K.J.G A H A.J.R V A T A.A.H Z H Z.A.A.F A L A.A.Z.W.Y.T A m L Z s b f s V I ",
"`.I.Q.Y.Y.J.R H S A B g f I Z.R R J.J.Z.Z.R A.J.J.Z.R R J.J.J.T R R J.J.Z.R R A.J.A.R T R A.J.A.Z.R R Y.W.Y.U.E L A A V h s B K ",
"~.I.!.Y.p 0 G L V 0 1 u g L T T T i 4 V R T F 6 0 I T T c 1 c R I I 0 7 F R R V 4 p T T R a 4 n T T T Y.Q.m 7 m L G t 1 y d B K ",
"~.J.!.K.< . 0 T d o O t f L L L I $ X t I R a o # B P L 2   < T T V O o x T R w X $ A T I ,   6 T L L I.Q.w . < L V $ o 8 s B I ",
"/.I.~.J.2 O 7 T a # & t g A H H V % O e L L p O $ B L H 2 o 2 L L B # O d L L e O , V I H , o 6 L G G U.Q.w O , L V $ $ 8 s B P ",
"#XJ.!.I.F b m L b u v f s A A A V d f B V L B a c V A A d a c A A V d x B V H v a c A A A d d B G S A J.Q.K v v L V a B d s B I ",
"E.J.!.Y.Y.P.R H G A b f d Z Z V V H V V V V V S A A V V A A G R R L A V G V V V A A V V V A S V V V V J.E.Y.K.J.L A V V h s B G ",
"L W !.Y.c p H L Z t 6 s d V B B B 8 1 s B B B 5 8 B V B B Z.`.K V K.~.Z B B B d 5 e B B B r 1 a V B B Z.Q.V w V I A a 6 y s B B ",
"W W !.K.<   0 U x O O t f v h B B + o 7 B B 8 O + u B v V !.2 X X @ F Y.f B B 6 X $ d B B % X 1 B B v J.Q.w   1 I V % X 8 s B B ",
"W W !.J.2 o 7 T a # $ y d h h h f $ O 8 B B 8 + $ u v f S b X + # O , R h h B 6 O & d v B % O 5 h h h R !.w o , I V $ + 8 s h B ",
"~.W R.I.V n n L v y h d s g d d s r y u s u r r y s d s B a O + + + % H s s s r y y a d s r y u d s s R Q.G v c L V y f s s B V ",
"`.W !.Y.U.J.R I G V B g s d f d g g s h s f B s f f g s V p O # + + % G d f f f g g s h s h g g f f s T Q.Y.J.R I S V B h s h K ",
"~.R !.Y.J.Z.I v V V v d g T.!.R.R.R.R.R.R.R.R.T.R.R.R.R.~.d O $ $ $ % E ~.R.R.R.R.R.R.R.R.R.R.R.R.R.R.).Y.J.A.T B B V v h s b H ",
"~.E R.Y.J.R 2 + $ c B s B C B C B B B B B B B B B C B A V A G G F G G F V C C C B C C C B B B B C C V R !.J.J.i @ O p B f g B J ",
"/.U T.%XJ.K & O O y v B A h h B g g B B B B B s h h h h h V H G J H H V h h g g s B h g B h B g h h g Z $XW.Z.4 O o 7 B B S h J ",
"~.U Y ).$XJ.& O + d U U B h B B C A A C A C A A S A A A A T J.Z.A.A.Z.T C C A A D A A C A A A A A S A C W -XR.6 O O 0 U U B h G ",
"~.E Y R T.R.< o O B U B g h g B W Y W Y W Y W Y Y Y U W T Y.!.!.Q.!.Q.P.Y W U W Y Y Y W Y U W Y Y Y Y W U I.).i o o a Y B g v H ",
"~.Y Y Y U Y S B A D D D D D D U U U U U U Y Y Y R J.W W R I.Q.Q.Q.Q.Q.U.E A.W W Y Y U W U U U U U U Y U Y U Y L Z Z D D D D D W.",
"XXY Y U Y Y Y W Y Y U U W U U W !.!.R.T.W U Y R ~.Q Q Q @X^.Q.E.Q.Q.T.OX~ Q Q ! ~.U U U W R.!.!.R.W U Y U Y Y Y Y Y Y Y Y Y U ^."
};
