/* XPM */
static char *result[] = {
/* columns rows colors chars-per-pixel */
"64 64 42 1 ",
"  c #7A4C36",
". c #7E5039",
"X c #804F39",
"o c #815037",
"O c #85533B",
"+ c #8A563D",
"@ c #8D593E",
"# c #90573F",
"$ c #935B3F",
"% c #9B5D3F",
"& c #93613F",
"* c #875540",
"= c #8F5740",
"- c #8E5A40",
"; c #935741",
": c #945D42",
"> c #9A5E44",
", c #9D5F48",
"< c #A15F43",
"1 c #A05F48",
"2 c #966144",
"3 c #9B6245",
"4 c #9D6945",
"5 c #976349",
"6 c #9D6449",
"7 c #9E694B",
"8 c #A16546",
"9 c #A86747",
"0 c #A26946",
"q c #A1654A",
"w c #A36B4C",
"e c #A96E4D",
"r c #A4714D",
"t c #AA724E",
"y c #AF7A4F",
"u c #A56E50",
"i c #A86E50",
"p c #A57251",
"a c #AB7452",
"s c #AE7955",
"d c #B5825B",
"f c #000000",
/* pixels */
"puq3ep>f7i3f3wq$ffO=fff8w:ffOfff>:@:::f23ff36634tw63ep>f7i3f3wq@",
"43f3pi2:ea6f2uw$Off63-O::f+%33f6w7eqff:qar2f::f346f3pi2:ip6f2uw$",
":0f>7wff5u6ff38:OX-7w6:::f*370ff6epp6->6q6::7w6f:0f:7wff6wqff,0:",
"6e3f3q2ffiw;::--Off31:+3q@f>>2:ff+233:@++f+1papfqe6f3q2ffiw;:::-",
"wa7f7pwf:e0f8eq:ff-68:f:,:53f,3+f>ff:>2fff-upspf7a7f7pwf:e0f3e6:",
"27::wpqf3q6f6ap5fO:7a73f67w8f:$O:qewq3:66:f8qpqf27::wpqf>q6f8ap3",
":73-:3-:7uu63ewfff+365f:463ff6+f$7pae3232;:rsw:f:63-:5#:7pe36uwf",
"wte:f6f:waaq28f2$+f2q>ff2@3878ff.:7e3fff.O@pdy63rte>f6f:wasq:0f2",
"wap32w7@ust:3ew75#f5q:f-3:307:fff::ff23:;2-7sa3:qsp32ww@uay-6ew7",
"3ww:@wq>8eqf7ase:+f++ff+6e::$f+:3wwff20qw6ff6w@f3ww:-q7>qeqf7ase",
"ff:ff366epqf3ss6fffffff+6r86ffo:epu3f+>ei6f6pt6qff:ff363euqf3ss6",
"fff33ff:iawffqqff:@fO@+f:60333OO5q3Off$3:ffqsspqfff33ff:isqffqqf",
"f>:2,@f3rw6fffffq6@fO:@+f-:f32$@:@f+@:fffff>pse:f>:23:f3we3fffff",
"$>:f++2;++6;+ffqeqOf :3$ff2f=-+3pwff:234q3@f3w2f$>:fO+::-*6:+ffq",
"33@fOf+fff6:Xff5qq@ff:2Off33>@f3sa6f$2:336fffff$33@f+f@fff3:Xff3",
"qq:f@-ffff-fffO:$:Offff@@f:372f$qw,f-@ff::f>wff>qq:f$*ffff-fffO:",
"27%f:3::+f:f*-:3ff::-f:,-.O>6:&wr5f21:f>:ff>w3@f27%f$,::+f:f*-:6",
"@ff+$q:=f$33+@:3:qq,::+::@f@@f2ts0f:3ff48ff<q5$:$ff+26>+f:6:*@:3",
"0f3f+3:of=6,ff++:6wq3:f+:$f3,:3ts6f::f-wqf:we3O30f3f@3$ f+6,ff++",
"3ww:f:f::#58ff63fO8u3Offfffqpq2wpf263f27u:+ep,f66w7:f:f$:#38ff33",
"27q:f336w6:2ff06>f2w-f23fffqpawf-:6e3-2q7+f:f:ff:ww:f33qw6::ff06",
"-53@6wqwiwqq3:>::f3:f:3612f3aa7ff27iu3-35ffffw3f-53@6wqwpeqw3>>:",
"fff>ww0:qq5i76:f:6wqf:6wq>f:w0f2f@wpu3fff:,5f03ffff:ww0:qq3p73:f",
"qq3>6::f3:fqe7+:8qq6f-3wq$ffff>:f2q6:f663qq:f+$,qq336>-f:>fqe6+:",
"erq::ffeue62w3ff:66:ff373ff2f3:Of3aef5w83q6:fff3wpq2:ffwui32q3ff",
"3wq6raweasqff:3:ffXfffffff:>+:+fO6arf6w,$eq+f::O3wq6rswusaqff23:",
"@::wpsw2wq3ff23783ff#:fff165+f@*f3w:f6i:-wqff:3f=::qaae2qq6ff:47",
"w6fuspq:$fffff:,q:f:333ff>86:f:5f::ff:q3f22f@@+0w3fesp6::fffff:6",
"suferuep3ff&2>:O:ff:66>+ff:8>f:6f3:f$ffeaw2ffff0sufepeep3ff$5>:O",
"ep7f5:rr2ff$3q:ff@++-3:O=::3@f03-q3f=>fesa3f2336ea7f:2ep2ff$3q:f",
"qwq>ief3f::O:3:f>52:ffOf:wpwf6e7-33f$,:7eq:O246@8w65etf3f:$O:>:f",
"0::wssqf63>ffff364e7ff>>-qaaqqarf5:f:6f@+fff:3:f6>:wss7f36,ffff5",
"pe2qpu2fqwwf33$:2qq0f346+3ppq:q6f63f:>fwtw2f:@3war27pp3fqwwf5,$:",
"st:563f:pau:qq-ff-62ff::ff32:fff6r7::::ys03346wast:36>f:pau:q8:f",
"awff6w6$9ief::+f4aw6ff+86ff3w73feae300:q6f37q-wsawff5w3:9ief:2Of",
"pfffeaq::3e3ffff2asw$f:e0ff6ee>f4ww-3qf+ff33ffqspfffeaq:32e3ffff",
"w32fqpw3pee7f@$ff6w7Of+q6:f+36:f@::36:366f::363ww32fqpw>rwrqf@$f",
"7eq3:4w6ai::f$322ff@+ff:73:ff38:f7waq:epw3qppp7f7uq3:4wqse::f$32",
"erq3f-35aqf@ff:363fq>+f>w6:ff463:qaaq:wi8f3waiifeuq3f:35pwf@ff:5",
"q6@-3:ffpwf:>@f:8330>+f->3>:$$:+f@we5f8q3f->>w0:83$-2:ffrwf$>@f:",
"ff3603ff63f%>:ff6q3Of-:-fweq3fff:ffffff+38wwffffff6673ffq3f%>:ff",
"0f+::O3q>:f+@fffwpw3f:2@6uu7,30q3:fqwqw36wwwfrtq0f+::+2q3:f+@fff",
"w3:6>f:wi0:fO$@fqtq2f$-f-3q:+3qqq2:qptw6f36fftssw3:q:f:we3:fO$@f",
"e>qu7&:7w3Of%%:ffOfffffffqwfffO:2ff2ew@f3uaqf3rsw36uw&:6e3Of%>:f",
"q:7up8f:3+ff,q3-ffffff:,8qw>ff33-ff@63f6was7ffwsw:qpu8f23Off,0>-",
"ff0uw,63f$:f@66-f-32@f+&32ff:8uaw2:52f3qpaa6ffqrff0uw>6>f$:f@66@",
"ff:@:fqqf6q&ff-ff+:>+Off--ff:6psu::ee5+6rsp:->ffff:=:fwqf6w:ff@f",
"eref77:f3ww%:2:ff ;-.ff3w,ff+:@:2f:7u3ff33f:776wwref77:f3w6%:3:f",
"pu63ep>f7i3f3wq$ffO=fff8w:ffOfff2:@:::f33ff27634pe63ep>f7i3f3wq@",
"43f3pi2:ua6f2uw$Off63-O::f+%33f6qwwqff:qpp2f::f346f3pu2:ea6f2uw$",
":0f>7wff5e6ff38:OX-7w6:::f*370ff6epi6-33w8+>6w6f:0f:wwff5i6ff182",
"6e3f3q2ffiw;::--Off31:+3q@f>>2:ff+323:@++f+8psrfqe6f2q2ffiw;::--",
"wa7f7pwf:e0f8eq:ff-68:f:,:53f,3+f2ff>>3fff-wpspf7aqf7pwf:e8f6e6:",
"27::wpqf3q6f6ap5fO:7a73f67w8f:$O:qew0::66:f8qrqf27::rpqf>w8f8ap3",
":73-:3-:7uu63ewfff+365f:463ff6+f:6pae3:65::7sw:f:73-:3=:7pu36wwf",
"wte:f6f:waaq28f2$+f2q>ff2@3878ff.>7w6fff.O:pdy6>wte:f6f:uaaq20f2",
"qsp32ww@ust:3ew73+f66:f->230q:fff::ff:3:::-7sa3:qsp32ww@way-6ew7",
"3ww:-q7>8eqf7asu2+f*+ff+6e::2f+:3uwff28qu3ff47:f3ww:-q7>qeqf7ase",
"ff:ff363epqf3as0fffffff+6r86ffo$wpe2f+8wu6f6pt6qff:ff363euqf3ss6",
"fff33ff:iawffqqff:@fO@+f:60332OO373+ff$3:ffqsspqfff33ff:isqffqqf",
"f>:2,@f3we3fffffq6+fO-@+f-:f63$@>+f+$:fffff,tsu2f>:23:f3we3fffff",
"$>:f++::-*6:+ffqeqOf :3$ff2f@-O,pwff:26qq3@f3w2f$>:fO+::-*6:+ffq",
"33@f+f@fff3:Xff5qq$ff:2Off333+f2sa6f$2:338fffff$33@f+f@fff3:Xff3",
"qq:f-+ffff-fff+:$:Offff@@f:372f2qq3f@+ff>$f$wff>qq:f$*ffff-fffO:"
};
